<svg width="180" height="180" viewBox="0 0 180 180" fill="none" xmlns="http://www.w3.org/2000/svg">
  <rect width="180" height="180" rx="40" fill="#10b981"/>
  <path d="M56 45h36.6c14 0 22.5 6.75 22.5 18 0 8.44-5.06 14.06-12.38 16.31v.56c9.56 1.69 15.75 8.44 15.75 18 0 12.94-9.56 20.25-24.75 20.25H56V45zm18 29.25h15.75c6.19 0 9.56-2.81 9.56-7.88 0-5.06-3.37-7.31-9.56-7.31H74v15.19zm0 31.5h17.44c6.75 0 10.69-3.37 10.69-8.44s-3.94-7.88-10.69-7.88H74v16.31z" fill="white"/>
  <rect x="124" y="118" width="11" height="17" rx="3" fill="white" opacity="0.6"/>
  <rect x="124" y="96" width="11" height="17" rx="3" fill="white" opacity="0.4"/>
</svg>
